PathFileType	4	(X/Y/Z)	s04c0203.trc
DataRate	CameraRate	NumFrames	NumMarkers	Units	OrigDataRate	OrigDataStartFrame	OrigNumFrames
200	200	4	50	mm	200	750	2000
Frame#	Time	racr			lacr			c7			jug			rlel			rdr			llel			ldr			s2			lic			ric			lasi			rasi			rpsi			lpsi			rgt			lgt			rth1			rth2			rth3			rth4			rlfc			rmfc			rsh1			rsh2			rsh3			rsh4			rlmal			rmmal			rcal			rtoe			rmt5			lth1			lth2			lth4			lth3			llfc			lmfc			lsh1			lsh2			lsh3			lsh4			llmal			lmmal			lcal			ltoe			lmt5			SBIKE			LBIKE			RBIKE			
		X1	Y1	Z1	X2	Y2	Z2	X3	Y3	Z3	X4	Y4	Z4	X5	Y5	Z5	X6	Y6	Z6	X7	Y7	Z7	X8	Y8	Z8	X9	Y9	Z9	X10	Y10	Z10	X11	Y11	Z11	X12	Y12	Z12	X13	Y13	Z13	X14	Y14	Z14	X15	Y15	Z15	X16	Y16	Z16	X17	Y17	Z17	X18	Y18	Z18	X19	Y19	Z19	X20	Y20	Z20	X21	Y21	Z21	X22	Y22	Z22	X23	Y23	Z23	X24	Y24	Z24	X25	Y25	Z25	X26	Y26	Z26	X27	Y27	Z27	X28	Y28	Z28	X29	Y29	Z29	X30	Y30	Z30	X31	Y31	Z31	X32	Y32	Z32	X33	Y33	Z33	X34	Y34	Z34	X35	Y35	Z35	X36	Y36	Z36	X37	Y37	Z37	X38	Y38	Z38	X39	Y39	Z39	X40	Y40	Z40	X41	Y41	Z41	X42	Y42	Z42	X43	Y43	Z43	X44	Y44	Z44	X45	Y45	Z45	X46	Y46	Z46	X47	Y47	Z47	X48	Y48	Z48	X49	Y49	Z49	X50	Y50	Z50	
750	3.7500	482.475312	1378.654531	-177.718566	463.859380	1366.044201	-461.449711	454.093537	1440.391463	-318.396265	427.857275	1287.987025	-317.521884	452.120660	1095.866099	-15.578834	674.924978	933.039894	-129.289176	442.545339	1107.795959	-604.095944	655.549516	940.870713	-494.542150	-82.016956	1160.258588	-287.168060	54.887239	1187.957280	-445.584892	78.920905	1179.013431	-126.424833	105.901542	1152.805018	-405.477390	126.557851	1137.335293	-173.940729	-53.597683	1203.287789	-240.141581	-63.274278	1210.673183	-312.663579	36.586180	1109.468141	-111.711974	41.797391	1112.513985	-475.153536	143.974419	987.670814	-93.672839	211.767237	931.399839	-99.585043	245.444753	852.957990	-98.410835	237.863851	951.520091	-116.928997	308.001440	722.281395	-114.457467	292.922920	702.827501	-228.679770	231.080799	621.646750	-91.420102	200.604441	537.191607	-109.263171	132.085475	485.300929	-120.172856	229.243539	522.603202	-131.039623	54.430738	352.911896	-129.308231	84.335637	349.900508	-212.292861	-14.261363	358.001079	-176.248914	229.681542	176.356086	-156.173231	157.052789	195.212802	-107.642898	113.489136	1057.462592	-483.542682	199.184614	1045.271187	-489.138342	213.752793	1077.578863	-479.417407	268.324955	989.453810	-493.770225	404.530996	901.518594	-473.768351	442.438604	885.664450	-365.491641	377.874567	789.048614	-492.118870	363.042252	705.319938	-469.287066	307.918330	636.101894	-464.103535	389.768105	698.280282	-441.537600	242.164217	507.381930	-451.593289	243.367384	517.916826	-364.966540	160.556900	485.360665	-409.477333	460.775758	471.327894	-421.064851	390.014737	431.041849	-480.774542	-184.744199	929.760231	-286.338714	-17.366459	79.020452	-485.463733	-17.428847	79.219988	-84.754118	
751	3.7550	482.406440	1378.622147	-177.361725	464.181400	1365.545108	-461.851396	454.507619	1440.190740	-318.371599	428.144915	1287.696034	-317.372546	450.528364	1095.921071	-15.151722	673.009164	932.633988	-128.631738	441.125942	1107.636391	-605.305261	653.750052	940.284896	-494.961737	-81.711326	1159.395688	-287.388179	55.477061	1186.871691	-446.111668	79.260494	1178.767819	-126.535910	106.405186	1151.525556	-405.655826	126.831507	1137.053094	-173.975536	-53.313617	1202.571059	-240.440683	-63.100783	1209.669766	-312.460679	37.102665	1109.319630	-111.588431	43.069301	1108.412569	-474.847474	145.677959	989.148766	-94.208574	214.205783	933.678654	-99.962539	248.803598	855.630779	-98.544624	240.065880	954.030003	-117.162244	312.301160	725.699236	-113.978567	296.716036	706.258824	-228.252046	233.614436	626.383349	-91.017093	200.817311	542.734406	-108.967141	131.110848	492.471979	-119.875617	229.127730	527.490192	-130.811751	50.441604	361.822014	-129.191213	80.429076	358.381664	-212.167232	-18.181797	367.993696	-176.202665	223.032765	182.759224	-156.083282	150.603581	202.656668	-107.615058	114.716860	1052.376876	-483.249345	200.161873	1038.786650	-489.012254	215.318654	1070.936950	-479.588376	268.456098	981.654086	-492.270715	402.459316	891.469590	-471.440121	439.270276	875.192605	-362.996644	377.295597	777.028042	-490.137077	363.832220	693.235254	-467.016830	310.169229	622.930574	-462.439191	390.428294	686.858142	-438.773555	246.142980	494.722536	-451.217677	247.121715	505.118135	-364.405342	165.696411	470.283586	-408.854404	465.564313	465.461989	-421.037123	395.935503	423.312654	-480.758973	-184.579370	929.739165	-286.477688	-17.431482	78.960049	-485.429218	-17.421909	79.204043	-84.752957	
752	3.7600	482.371431	1378.647268	-177.040985	464.588465	1365.048026	-462.174894	454.961260	1439.998424	-317.877958	428.611740	1287.449642	-317.210684	448.949763	1096.358246	-14.761441	670.894263	932.356646	-128.004712	439.754781	1107.525561	-606.466070	651.869267	939.618965	-495.296455	-81.377949	1158.660909	-287.824326	56.200128	1185.917070	-446.731703	79.636798	1178.557498	-126.729037	107.045681	1150.264045	-405.889061	127.214377	1136.723528	-174.619068	-53.104999	1201.919191	-240.874908	-62.807286	1208.699237	-312.687263	37.672055	1109.272821	-111.666384	44.418897	1104.328392	-474.567023	147.371066	990.660137	-94.668153	216.477996	935.987713	-100.323783	252.024490	858.338610	-98.525698	242.147624	956.579433	-117.356470	316.239753	728.944026	-113.468535	300.598223	709.716029	-227.575170	235.691131	631.162425	-90.623524	201.027525	548.259905	-108.659369	130.174415	499.681227	-119.609106	228.918732	532.404677	-130.553987	46.542890	371.338542	-129.494068	76.572579	367.061358	-212.111448	-22.081611	378.137424	-176.159601	216.715470	189.676948	-156.084487	144.594882	210.485861	-107.565476	116.106516	1047.532385	-483.240780	201.349308	1032.470631	-488.715705	216.951088	1064.326509	-479.171102	268.821928	974.029842	-490.600393	400.146845	881.461912	-469.521724	437.199158	865.823702	-360.323740	376.547520	765.835336	-488.267075	364.728509	681.865322	-464.997784	312.733042	610.360776	-460.616512	391.191109	676.210733	-436.266761	250.053839	482.763288	-451.032523	250.923923	492.759538	-363.728962	170.203983	456.170971	-408.509071	470.097524	458.852097	-420.951717	401.435267	415.106547	-480.673064	-184.423010	929.753969	-286.516681	-17.419038	78.941770	-485.443568	-17.403437	79.182823	-84.752605	
753	3.7650	482.439268	1378.699363	-176.665243	465.137743	1364.564782	-462.448991	455.527448	1439.832534	-317.232358	429.277023	1287.381261	-317.009530	447.387478	1096.984199	-14.256135	668.533265	932.035222	-127.779889	438.461795	1107.429973	-607.517552	649.946859	938.842844	-495.503708	-80.929348	1157.987512	-288.206547	56.973115	1185.041074	-447.277049	80.090882	1178.332682	-127.012042	107.831360	1149.033928	-406.185120	127.598804	1136.471217	-175.374383	-53.397299	1201.788709	-241.270473	-62.069330	1208.276023	-313.774784	38.293810	1109.445283	-111.824898	45.783989	1100.412717	-474.172559	148.953348	992.270944	-94.984098	218.567781	938.291503	-100.571301	254.957032	861.068434	-98.394634	244.032323	959.008322	-117.536648	319.900587	732.099788	-112.910812	304.259341	712.894930	-226.966237	237.640920	636.140947	-90.162098	201.202693	554.001293	-108.360234	129.241897	506.990811	-119.405295	228.677631	537.515526	-130.290565	42.849736	380.326849	-129.416114	73.163700	375.735920	-212.196593	-25.767257	388.150676	-176.338814	211.083669	197.187737	-156.040616	139.124579	218.792458	-107.498506	117.599623	1043.183460	-483.686914	202.617552	1026.520918	-488.282831	218.712651	1058.338280	-479.572744	269.287394	967.185560	-489.534345	398.278446	871.966604	-467.826012	433.243239	855.447133	-359.147007	375.580437	756.311396	-486.839264	365.415317	672.204265	-463.512423	315.201669	599.473997	-459.206000	392.084053	667.071255	-434.797322	253.811416	471.112243	-450.604843	254.552031	480.797490	-363.179034	174.448777	442.764466	-408.240280	474.324695	451.634734	-420.754731	406.546854	406.648589	-480.519533	-184.333856	929.717719	-286.746767	-17.405994	78.912315	-485.453757	-17.387967	79.180061	-84.742220	
